<svg width="143" height="86" viewBox="0 0 143 86" fill="none" xmlns="http://www.w3.org/2000/svg">
<path d="M17.976 60.56C19.016 60.56 19.944 60.776 20.76 61.208C21.592 61.64 22.24 62.28 22.704 63.128C23.184 63.976 23.424 65 23.424 66.2V74H20.712V66.608C20.712 65.424 20.416 64.52 19.824 63.896C19.232 63.256 18.424 62.936 17.4 62.936C16.376 62.936 15.56 63.256 14.952 63.896C14.36 64.52 14.064 65.424 14.064 66.608V74H11.352V66.608C11.352 65.424 11.056 64.52 10.464 63.896C9.87197 63.256 9.06397 62.936 8.03997 62.936C7.01597 62.936 6.19997 63.256 5.59197 63.896C4.99997 64.52 4.70397 65.424 4.70397 66.608V74H1.96797V60.776H4.70397V62.288C5.15197 61.744 5.71997 61.32 6.40797 61.016C7.09597 60.712 7.83197 60.56 8.61597 60.56C9.67197 60.56 10.616 60.784 11.448 61.232C12.28 61.68 12.92 62.328 13.368 63.176C13.768 62.376 14.392 61.744 15.24 61.28C16.088 60.8 17 60.56 17.976 60.56ZM38.8095 60.776L30.6975 80.216H27.8655L30.5535 73.784L25.3455 60.776H28.3935L32.1135 70.856L35.9775 60.776H38.8095Z" fill="#FAFAFA"/>
<path d="M46.4182 63.008H43.9702V74H41.2102V63.008H39.6502V60.776H41.2102V59.84C41.2102 58.32 41.6102 57.216 42.4102 56.528C43.2262 55.824 44.4982 55.472 46.2262 55.472V57.752C45.3942 57.752 44.8102 57.912 44.4742 58.232C44.1382 58.536 43.9702 59.072 43.9702 59.84V60.776H46.4182V63.008ZM50.235 59.024C49.739 59.024 49.323 58.856 48.987 58.52C48.651 58.184 48.483 57.768 48.483 57.272C48.483 56.776 48.651 56.36 48.987 56.024C49.323 55.688 49.739 55.52 50.235 55.52C50.715 55.52 51.123 55.688 51.459 56.024C51.795 56.36 51.963 56.776 51.963 57.272C51.963 57.768 51.795 58.184 51.459 58.52C51.123 58.856 50.715 59.024 50.235 59.024ZM51.579 60.776V74H48.843V60.776H51.579ZM61.8431 60.56C62.8831 60.56 63.8111 60.776 64.6271 61.208C65.4591 61.64 66.1071 62.28 66.5711 63.128C67.0351 63.976 67.2671 65 67.2671 66.2V74H64.5551V66.608C64.5551 65.424 64.2591 64.52 63.6671 63.896C63.0751 63.256 62.2671 62.936 61.2431 62.936C60.2191 62.936 59.4031 63.256 58.7951 63.896C58.2031 64.52 57.9071 65.424 57.9071 66.608V74H55.1711V60.776H57.9071V62.288C58.3551 61.744 58.9231 61.32 59.6111 61.016C60.3151 60.712 61.0591 60.56 61.8431 60.56ZM69.845 67.328C69.845 66 70.117 64.824 70.661 63.8C71.221 62.776 71.973 61.984 72.917 61.424C73.877 60.848 74.933 60.56 76.085 60.56C77.125 60.56 78.029 60.768 78.797 61.184C79.581 61.584 80.205 62.088 80.669 62.696V60.776H83.429V74H80.669V72.032C80.205 72.656 79.573 73.176 78.773 73.592C77.973 74.008 77.061 74.216 76.037 74.216C74.901 74.216 73.861 73.928 72.917 73.352C71.973 72.76 71.221 71.944 70.661 70.904C70.117 69.848 69.845 68.656 69.845 67.328ZM80.669 67.376C80.669 66.464 80.477 65.672 80.093 65C79.725 64.328 79.237 63.816 78.629 63.464C78.021 63.112 77.365 62.936 76.661 62.936C75.957 62.936 75.301 63.112 74.693 63.464C74.085 63.8 73.589 64.304 73.205 64.976C72.837 65.632 72.653 66.416 72.653 67.328C72.653 68.24 72.837 69.04 73.205 69.728C73.589 70.416 74.085 70.944 74.693 71.312C75.317 71.664 75.973 71.84 76.661 71.84C77.365 71.84 78.021 71.664 78.629 71.312C79.237 70.96 79.725 70.448 80.093 69.776C80.477 69.088 80.669 68.288 80.669 67.376ZM93.6947 60.56C94.7347 60.56 95.6627 60.776 96.4787 61.208C97.3107 61.64 97.9587 62.28 98.4227 63.128C98.8867 63.976 99.1187 65 99.1187 66.2V74H96.4067V66.608C96.4067 65.424 96.1107 64.52 95.5187 63.896C94.9267 63.256 94.1187 62.936 93.0947 62.936C92.0707 62.936 91.2547 63.256 90.6467 63.896C90.0547 64.52 89.7587 65.424 89.7587 66.608V74H87.0227V60.776H89.7587V62.288C90.2067 61.744 90.7747 61.32 91.4627 61.016C92.1667 60.712 92.9107 60.56 93.6947 60.56ZM101.697 67.376C101.697 66.016 101.969 64.824 102.513 63.8C103.073 62.76 103.841 61.96 104.817 61.4C105.793 60.84 106.913 60.56 108.177 60.56C109.777 60.56 111.097 60.944 112.137 61.712C113.193 62.464 113.905 63.544 114.273 64.952H111.321C111.081 64.296 110.697 63.784 110.169 63.416C109.641 63.048 108.977 62.864 108.177 62.864C107.057 62.864 106.161 63.264 105.489 64.064C104.833 64.848 104.505 65.952 104.505 67.376C104.505 68.8 104.833 69.912 105.489 70.712C106.161 71.512 107.057 71.912 108.177 71.912C109.761 71.912 110.809 71.216 111.321 69.824H114.273C113.889 71.168 113.169 72.24 112.113 73.04C111.057 73.824 109.745 74.216 108.177 74.216C106.913 74.216 105.793 73.936 104.817 73.376C103.841 72.8 103.073 72 102.513 70.976C101.969 69.936 101.697 68.736 101.697 67.376ZM129.119 67.064C129.119 67.56 129.087 68.008 129.023 68.408H118.919C118.999 69.464 119.391 70.312 120.095 70.952C120.799 71.592 121.663 71.912 122.687 71.912C124.159 71.912 125.199 71.296 125.807 70.064H128.759C128.359 71.28 127.631 72.28 126.575 73.064C125.535 73.832 124.239 74.216 122.687 74.216C121.423 74.216 120.287 73.936 119.279 73.376C118.287 72.8 117.503 72 116.927 70.976C116.367 69.936 116.087 68.736 116.087 67.376C116.087 66.016 116.359 64.824 116.903 63.8C117.463 62.76 118.239 61.96 119.231 61.4C120.239 60.84 121.391 60.56 122.687 60.56C123.935 60.56 125.047 60.832 126.023 61.376C126.999 61.92 127.759 62.688 128.303 63.68C128.847 64.656 129.119 65.784 129.119 67.064ZM126.263 66.2C126.247 65.192 125.887 64.384 125.183 63.776C124.479 63.168 123.607 62.864 122.567 62.864C121.623 62.864 120.815 63.168 120.143 63.776C119.471 64.368 119.071 65.176 118.943 66.2H126.263ZM136.612 74.216C135.572 74.216 134.636 74.032 133.804 73.664C132.988 73.28 132.34 72.768 131.86 72.128C131.38 71.472 131.124 70.744 131.092 69.944H133.924C133.972 70.504 134.236 70.976 134.716 71.36C135.212 71.728 135.828 71.912 136.564 71.912C137.332 71.912 137.924 71.768 138.34 71.48C138.772 71.176 138.988 70.792 138.988 70.328C138.988 69.832 138.748 69.464 138.268 69.224C137.804 68.984 137.06 68.72 136.036 68.432C135.044 68.16 134.236 67.896 133.612 67.64C132.988 67.384 132.444 66.992 131.98 66.464C131.532 65.936 131.308 65.24 131.308 64.376C131.308 63.672 131.516 63.032 131.932 62.456C132.348 61.864 132.94 61.4 133.708 61.064C134.492 60.728 135.388 60.56 136.396 60.56C137.9 60.56 139.108 60.944 140.02 61.712C140.948 62.464 141.444 63.496 141.508 64.808H138.772C138.724 64.216 138.484 63.744 138.052 63.392C137.62 63.04 137.036 62.864 136.3 62.864C135.58 62.864 135.028 63 134.644 63.272C134.26 63.544 134.068 63.904 134.068 64.352C134.068 64.704 134.196 65 134.452 65.24C134.708 65.48 135.02 65.672 135.388 65.816C135.756 65.944 136.3 66.112 137.02 66.32C137.98 66.576 138.764 66.84 139.372 67.112C139.996 67.368 140.532 67.752 140.98 68.264C141.428 68.776 141.66 69.456 141.676 70.304C141.676 71.056 141.468 71.728 141.052 72.32C140.636 72.912 140.044 73.376 139.276 73.712C138.524 74.048 137.636 74.216 136.612 74.216Z" fill="#12A454"/>
<path d="M80 8H53.75C51.6789 8 50 9.67893 50 11.75V38C50 40.0711 51.6789 41.75 53.75 41.75H80C82.0711 41.75 83.75 40.0711 83.75 38V11.75C83.75 9.67893 82.0711 8 80 8Z" stroke="#FAFAFA" stroke-width="2" stroke-linecap="round" stroke-linejoin="round"/>
<path d="M74 3.75V11.25" stroke="#FAFAFA" stroke-width="3.75" stroke-linecap="round" stroke-linejoin="round"/>
<path d="M59 3.75V11.25" stroke="#FAFAFA" stroke-width="3.75" stroke-linecap="round" stroke-linejoin="round"/>
<path d="M66.6 25C66.2 24.9 65.8 24.7 65.5 24.4C65.2 24.3 65.1 24 65.1 23.8C65.1 23.6 65.2 23.3 65.4 23.2C65.7 23 66 22.8 66.3 22.9C66.9 22.9 67.4 23.2 67.7 23.6L68.6 22.4C68.3 22.1 68 21.9 67.7 21.7C67.4 21.5 67 21.4 66.6 21.4V20H65.4V21.4C64.9 21.5 64.4 21.8 64 22.2C63.6 22.7 63.3 23.3 63.4 23.9C63.4 24.5 63.6 25.1 64 25.5C64.5 26 65.2 26.3 65.8 26.6C66.1 26.7 66.5 26.9 66.8 27.1C67 27.3 67.1 27.6 67.1 27.9C67.1 28.2 67 28.5 66.8 28.8C66.5 29.1 66.1 29.2 65.8 29.2C65.4 29.2 64.9 29.1 64.6 28.8C64.3 28.6 64 28.3 63.8 28L62.8 29.1C63.1 29.5 63.4 29.8 63.8 30.1C64.3 30.4 64.9 30.7 65.5 30.7V32H66.6V30.5C67.2 30.4 67.7 30.1 68.1 29.7C68.6 29.2 68.9 28.4 68.9 27.7C68.9 27.1 68.7 26.4 68.2 26C67.7 25.5 67.2 25.2 66.6 25ZM66 18C61.6 18 58 21.6 58 26C58 30.4 61.6 34 66 34C70.4 34 74 30.4 74 26C74 21.6 70.4 18 66 18ZM66 32.9C62.2 32.9 59.1 29.8 59.1 26C59.1 22.2 62.2 19.1 66 19.1C69.8 19.1 72.9 22.2 72.9 26C72.9 29.8 69.8 32.9 66 32.9Z" fill="#12A454"/>
</svg>
