<svg width="262" height="130" viewBox="0 0 262 130" fill="none" xmlns="http://www.w3.org/2000/svg">
<g opacity="0.7">
<path d="M40.6577 110.412H193.617V84.1958C193.593 81.4313 193.018 78.6994 191.925 76.1603C190.831 73.6211 189.242 71.326 187.249 69.4095L187.208 69.3689C184.476 66.6278 175.346 59.6709 165.899 60.2607C160.909 60.5714 156.637 62.9762 153.202 67.4086C142.508 81.2105 128.461 76.5516 121.04 72.5461C114.499 69.0155 107.82 67.3583 101.185 67.622C91.8939 67.9854 78.8162 71.4082 69.2787 85.652C65.636 91.0879 57.7139 98.4666 40.6577 102.803V110.412Z" fill="#363A40" fill-opacity="0.6"/>
<path d="M202.271 111.022H40.9521C40.8182 111.022 40.6898 110.969 40.5952 110.874C40.5005 110.78 40.4473 110.651 40.4473 110.517V33.1972C40.4473 33.0633 40.5005 32.9348 40.5951 32.8402C40.6898 32.7455 40.8182 32.6923 40.9521 32.6923C41.086 32.6923 41.2144 32.7455 41.3091 32.8402C41.4038 32.9348 41.457 33.0633 41.457 33.1972V110.012H202.271C202.405 110.012 202.533 110.066 202.628 110.16C202.723 110.255 202.776 110.383 202.776 110.517C202.776 110.651 202.723 110.78 202.628 110.874C202.533 110.969 202.405 111.022 202.271 111.022Z" fill="#BCBBC7"/>
<path d="M71.6376 81.2886H70.6475V110.312H71.6376V81.2886Z" fill="#BCBBC7"/>
<path d="M101.282 67.7338H100.292V110.312H101.282V67.7338Z" fill="#BCBBC7"/>
<path d="M130.987 76.6454H129.997V110.312H130.987V76.6454Z" fill="#BCBBC7"/>
<path d="M160.693 60.3074H159.703V110.312H160.693V60.3074Z" fill="#BCBBC7"/>
<path d="M190.398 71.6945H189.408V110.312H190.398V71.6945Z" fill="#BCBBC7"/>
<path d="M100.848 71.4454C102.521 71.4454 103.877 70.0892 103.877 68.4162C103.877 66.7433 102.521 65.3871 100.848 65.3871C99.175 65.3871 97.8188 66.7433 97.8188 68.4162C97.8188 70.0892 99.175 71.4454 100.848 71.4454Z" fill="#6C63FF"/>
<path d="M160.259 63.5239C161.932 63.5239 163.288 62.1677 163.288 60.4948C163.288 58.8219 161.932 57.4657 160.259 57.4657C158.586 57.4657 157.23 58.8219 157.23 60.4948C157.23 62.1677 158.586 63.5239 160.259 63.5239Z" fill="#6C63FF"/>
<path d="M130.553 79.8619C132.226 79.8619 133.583 78.5057 133.583 76.8328C133.583 75.1598 132.226 73.8037 130.553 73.8037C128.88 73.8037 127.524 75.1598 127.524 76.8328C127.524 78.5057 128.88 79.8619 130.553 79.8619Z" fill="#6C63FF"/>
<path d="M71.1425 84.3177C72.8155 84.3177 74.1717 82.9616 74.1717 81.2886C74.1717 79.6157 72.8155 78.2595 71.1425 78.2595C69.4696 78.2595 68.1134 79.6157 68.1134 81.2886C68.1134 82.9616 69.4696 84.3177 71.1425 84.3177Z" fill="#6C63FF"/>
<path d="M189.964 74.4159C191.637 74.4159 192.993 73.0597 192.993 71.3868C192.993 69.7138 191.637 68.3577 189.964 68.3577C188.291 68.3577 186.935 69.7138 186.935 71.3868C186.935 73.0597 188.291 74.4159 189.964 74.4159Z" fill="#6C63FF"/>
<path d="M191.793 76.826C188.697 74.2133 184.908 72.5568 180.887 72.0583C176.867 71.5597 172.788 72.2404 169.147 74.0177C165.507 75.795 162.461 78.5922 160.381 82.0688C158.301 85.5455 157.276 89.5517 157.432 93.6001C157.587 97.6485 158.916 101.564 161.256 104.871C163.597 108.178 166.848 110.734 170.614 112.227C174.38 113.72 178.499 114.086 182.47 113.28C186.44 112.475 190.091 110.533 192.978 107.69L218.613 129.321C219.003 129.649 219.508 129.809 220.016 129.766C220.524 129.723 220.994 129.48 221.323 129.09C221.652 128.701 221.814 128.197 221.772 127.689C221.73 127.181 221.488 126.71 221.1 126.38L221.097 126.378L195.462 104.747C198.44 100.473 199.714 95.2405 199.036 90.0757C198.357 84.9109 195.774 80.1856 191.793 76.826V76.826ZM190.141 102.664C188.143 105.031 185.489 106.752 182.514 107.61C179.538 108.469 176.375 108.426 173.424 107.486C170.474 106.547 167.867 104.754 165.936 102.333C164.004 99.9128 162.833 96.9739 162.572 93.8881C162.311 90.8024 162.97 87.7084 164.467 84.9975C165.964 82.2865 168.231 80.0804 170.982 78.658C173.733 77.2356 176.844 76.6609 179.921 77.0065C182.999 77.3521 185.904 78.6025 188.271 80.5996V80.5996C191.445 83.2776 193.425 87.1067 193.776 91.2446C194.126 95.3824 192.819 99.49 190.141 102.664V102.664Z" fill="#CACBCD"/>
<path d="M11.3203 17H9.62402L3.18164 7.13867V17H1.48535V4.20312H3.18164L9.6416 14.1084V4.20312H11.3203V17ZM18.0088 17.1758C16.7197 17.1758 15.6709 16.7539 14.8623 15.9102C14.0537 15.0605 13.6494 13.9268 13.6494 12.5088V12.21C13.6494 11.2666 13.8281 10.4258 14.1855 9.6875C14.5488 8.94336 15.0527 8.36328 15.6973 7.94727C16.3477 7.52539 17.0508 7.31445 17.8066 7.31445C19.043 7.31445 20.0039 7.72168 20.6895 8.53613C21.375 9.35059 21.7178 10.5166 21.7178 12.0342V12.7109H15.2754C15.2988 13.6484 15.5713 14.4072 16.0928 14.9873C16.6201 15.5615 17.2881 15.8486 18.0967 15.8486C18.6709 15.8486 19.1572 15.7314 19.5557 15.4971C19.9541 15.2627 20.3027 14.9521 20.6016 14.5654L21.5947 15.3389C20.7979 16.5635 19.6025 17.1758 18.0088 17.1758ZM17.8066 8.65039C17.1504 8.65039 16.5996 8.89062 16.1543 9.37109C15.709 9.8457 15.4336 10.5137 15.3281 11.375H20.0918V11.252C20.0449 10.4258 19.8223 9.78711 19.4238 9.33594C19.0254 8.87891 18.4863 8.65039 17.8066 8.65039ZM25.1455 7.49023L25.1982 8.68555C25.9248 7.77148 26.874 7.31445 28.0459 7.31445C30.0557 7.31445 31.0693 8.44824 31.0869 10.7158V17H29.4609V10.707C29.4551 10.0215 29.2969 9.51465 28.9863 9.18652C28.6816 8.8584 28.2041 8.69434 27.5537 8.69434C27.0264 8.69434 26.5635 8.83496 26.165 9.11621C25.7666 9.39746 25.4561 9.7666 25.2334 10.2236V17H23.6074V7.49023H25.1455ZM35.165 8.6416C35.8857 7.75684 36.8232 7.31445 37.9775 7.31445C39.9873 7.31445 41.001 8.44824 41.0186 10.7158V17H39.3926V10.707C39.3867 10.0215 39.2285 9.51465 38.918 9.18652C38.6133 8.8584 38.1357 8.69434 37.4854 8.69434C36.958 8.69434 36.4951 8.83496 36.0967 9.11621C35.6982 9.39746 35.3877 9.7666 35.165 10.2236V17H33.5391V3.5H35.165V8.6416ZM49.3242 16.0596C48.6914 16.8037 47.7627 17.1758 46.5381 17.1758C45.5244 17.1758 44.751 16.8828 44.2178 16.2969C43.6904 15.7051 43.4238 14.832 43.418 13.6777V7.49023H45.0439V13.6338C45.0439 15.0752 45.6299 15.7959 46.8018 15.7959C48.0439 15.7959 48.8701 15.333 49.2803 14.4072V7.49023H50.9062V17H49.3594L49.3242 16.0596ZM54.9141 7.49023L54.958 8.54492C55.6553 7.72461 56.5957 7.31445 57.7793 7.31445C59.1094 7.31445 60.0146 7.82422 60.4951 8.84375C60.8115 8.38672 61.2217 8.01758 61.7256 7.73633C62.2354 7.45508 62.8359 7.31445 63.5273 7.31445C65.6133 7.31445 66.6738 8.41895 66.709 10.6279V17H65.083V10.7246C65.083 10.0449 64.9277 9.53809 64.6172 9.2041C64.3066 8.86426 63.7852 8.69434 63.0527 8.69434C62.4492 8.69434 61.9482 8.87598 61.5498 9.23926C61.1514 9.59668 60.9199 10.0801 60.8555 10.6895V17H59.2207V10.7686C59.2207 9.38574 58.5439 8.69434 57.1904 8.69434C56.124 8.69434 55.3945 9.14844 55.002 10.0566V17H53.376V7.49023H54.9141ZM75.041 17C74.9473 16.8125 74.8711 16.4785 74.8125 15.998C74.0566 16.7832 73.1543 17.1758 72.1055 17.1758C71.168 17.1758 70.3975 16.9121 69.7939 16.3848C69.1963 15.8516 68.8975 15.1777 68.8975 14.3633C68.8975 13.373 69.2725 12.6055 70.0225 12.0605C70.7783 11.5098 71.8389 11.2344 73.2041 11.2344H74.7861V10.4873C74.7861 9.91895 74.6162 9.46777 74.2764 9.13379C73.9365 8.79395 73.4355 8.62402 72.7734 8.62402C72.1934 8.62402 71.707 8.77051 71.3145 9.06348C70.9219 9.35645 70.7256 9.71094 70.7256 10.127H69.0908C69.0908 9.65234 69.2578 9.19531 69.5918 8.75586C69.9316 8.31055 70.3887 7.95898 70.9629 7.70117C71.543 7.44336 72.1787 7.31445 72.8701 7.31445C73.9658 7.31445 74.8242 7.58984 75.4453 8.14062C76.0664 8.68555 76.3887 9.43848 76.4121 10.3994V14.7764C76.4121 15.6494 76.5234 16.3438 76.7461 16.8594V17H75.041ZM72.3428 15.7607C72.8525 15.7607 73.3359 15.6289 73.793 15.3652C74.25 15.1016 74.5811 14.7588 74.7861 14.3369V12.3857H73.5117C71.5195 12.3857 70.5234 12.9688 70.5234 14.1348C70.5234 14.6445 70.6934 15.043 71.0332 15.3301C71.373 15.6172 71.8096 15.7607 72.3428 15.7607ZM85.6318 5.1875V7.49023H87.4072V8.74707H85.6318V14.6445C85.6318 15.0254 85.7109 15.3125 85.8691 15.5059C86.0273 15.6934 86.2969 15.7871 86.6777 15.7871C86.8652 15.7871 87.123 15.752 87.4512 15.6816V17C87.0234 17.1172 86.6074 17.1758 86.2031 17.1758C85.4766 17.1758 84.9287 16.9561 84.5596 16.5166C84.1904 16.0771 84.0059 15.4531 84.0059 14.6445V8.74707H82.2744V7.49023H84.0059V5.1875H85.6318ZM93.9111 8.94922C93.665 8.9082 93.3984 8.8877 93.1113 8.8877C92.0449 8.8877 91.3213 9.3418 90.9404 10.25V17H89.3145V7.49023H90.8965L90.9229 8.58887C91.4561 7.73926 92.2119 7.31445 93.1904 7.31445C93.5068 7.31445 93.7471 7.35547 93.9111 7.4375V8.94922ZM100.934 17C100.84 16.8125 100.764 16.4785 100.705 15.998C99.9492 16.7832 99.0469 17.1758 97.998 17.1758C97.0605 17.1758 96.29 16.9121 95.6865 16.3848C95.0889 15.8516 94.79 15.1777 94.79 14.3633C94.79 13.373 95.165 12.6055 95.915 12.0605C96.6709 11.5098 97.7314 11.2344 99.0967 11.2344H100.679V10.4873C100.679 9.91895 100.509 9.46777 100.169 9.13379C99.8291 8.79395 99.3281 8.62402 98.666 8.62402C98.0859 8.62402 97.5996 8.77051 97.207 9.06348C96.8145 9.35645 96.6182 9.71094 96.6182 10.127H94.9834C94.9834 9.65234 95.1504 9.19531 95.4844 8.75586C95.8242 8.31055 96.2812 7.95898 96.8555 7.70117C97.4355 7.44336 98.0713 7.31445 98.7627 7.31445C99.8584 7.31445 100.717 7.58984 101.338 8.14062C101.959 8.68555 102.281 9.43848 102.305 10.3994V14.7764C102.305 15.6494 102.416 16.3438 102.639 16.8594V17H100.934ZM98.2354 15.7607C98.7451 15.7607 99.2285 15.6289 99.6855 15.3652C100.143 15.1016 100.474 14.7588 100.679 14.3369V12.3857H99.4043C97.4121 12.3857 96.416 12.9688 96.416 14.1348C96.416 14.6445 96.5859 15.043 96.9258 15.3301C97.2656 15.6172 97.7021 15.7607 98.2354 15.7607ZM106.392 7.49023L106.444 8.68555C107.171 7.77148 108.12 7.31445 109.292 7.31445C111.302 7.31445 112.315 8.44824 112.333 10.7158V17H110.707V10.707C110.701 10.0215 110.543 9.51465 110.232 9.18652C109.928 8.8584 109.45 8.69434 108.8 8.69434C108.272 8.69434 107.81 8.83496 107.411 9.11621C107.013 9.39746 106.702 9.7666 106.479 10.2236V17H104.854V7.49023H106.392ZM116.314 15.6729H121.878V17H114.328V15.8047L119.575 8.83496H114.407V7.49023H121.614V8.6416L116.314 15.6729ZM129.586 17C129.492 16.8125 129.416 16.4785 129.357 15.998C128.602 16.7832 127.699 17.1758 126.65 17.1758C125.713 17.1758 124.942 16.9121 124.339 16.3848C123.741 15.8516 123.442 15.1777 123.442 14.3633C123.442 13.373 123.817 12.6055 124.567 12.0605C125.323 11.5098 126.384 11.2344 127.749 11.2344H129.331V10.4873C129.331 9.91895 129.161 9.46777 128.821 9.13379C128.481 8.79395 127.98 8.62402 127.318 8.62402C126.738 8.62402 126.252 8.77051 125.859 9.06348C125.467 9.35645 125.271 9.71094 125.271 10.127H123.636C123.636 9.65234 123.803 9.19531 124.137 8.75586C124.477 8.31055 124.934 7.95898 125.508 7.70117C126.088 7.44336 126.724 7.31445 127.415 7.31445C128.511 7.31445 129.369 7.58984 129.99 8.14062C130.611 8.68555 130.934 9.43848 130.957 10.3994V14.7764C130.957 15.6494 131.068 16.3438 131.291 16.8594V17H129.586ZM126.888 15.7607C127.397 15.7607 127.881 15.6289 128.338 15.3652C128.795 15.1016 129.126 14.7588 129.331 14.3369V12.3857H128.057C126.064 12.3857 125.068 12.9688 125.068 14.1348C125.068 14.6445 125.238 15.043 125.578 15.3301C125.918 15.6172 126.354 15.7607 126.888 15.7607ZM137.32 15.8486C137.9 15.8486 138.407 15.6729 138.841 15.3213C139.274 14.9697 139.515 14.5303 139.562 14.0029H141.1C141.07 14.5479 140.883 15.0664 140.537 15.5586C140.191 16.0508 139.729 16.4434 139.148 16.7363C138.574 17.0293 137.965 17.1758 137.32 17.1758C136.025 17.1758 134.994 16.7451 134.227 15.8838C133.465 15.0166 133.084 13.833 133.084 12.333V12.0605C133.084 11.1348 133.254 10.3115 133.594 9.59082C133.934 8.87012 134.42 8.31055 135.053 7.91211C135.691 7.51367 136.444 7.31445 137.312 7.31445C138.378 7.31445 139.263 7.63379 139.966 8.27246C140.675 8.91113 141.053 9.74023 141.1 10.7598H139.562C139.515 10.1445 139.28 9.64062 138.858 9.24805C138.442 8.84961 137.927 8.65039 137.312 8.65039C136.485 8.65039 135.844 8.94922 135.387 9.54688C134.936 10.1387 134.71 10.9971 134.71 12.1221V12.4297C134.71 13.5254 134.936 14.3691 135.387 14.9609C135.838 15.5527 136.482 15.8486 137.32 15.8486ZM137.584 17.0791L137.479 17.5361C138.375 17.6943 138.823 18.2012 138.823 19.0566C138.823 19.625 138.589 20.0732 138.12 20.4014C137.651 20.7354 136.998 20.9023 136.16 20.9023L136.099 19.9619C136.562 19.9619 136.919 19.8857 137.171 19.7334C137.429 19.5811 137.558 19.3672 137.558 19.0918C137.558 18.834 137.464 18.6436 137.276 18.5205C137.089 18.3975 136.708 18.3096 136.134 18.2568L136.415 17.0791H137.584ZM148.799 17C148.705 16.8125 148.629 16.4785 148.57 15.998C147.814 16.7832 146.912 17.1758 145.863 17.1758C144.926 17.1758 144.155 16.9121 143.552 16.3848C142.954 15.8516 142.655 15.1777 142.655 14.3633C142.655 13.373 143.03 12.6055 143.78 12.0605C144.536 11.5098 145.597 11.2344 146.962 11.2344H148.544V10.4873C148.544 9.91895 148.374 9.46777 148.034 9.13379C147.694 8.79395 147.193 8.62402 146.531 8.62402C145.951 8.62402 145.465 8.77051 145.072 9.06348C144.68 9.35645 144.483 9.71094 144.483 10.127H142.849C142.849 9.65234 143.016 9.19531 143.35 8.75586C143.689 8.31055 144.146 7.95898 144.721 7.70117C145.301 7.44336 145.937 7.31445 146.628 7.31445C147.724 7.31445 148.582 7.58984 149.203 8.14062C149.824 8.68555 150.146 9.43848 150.17 10.3994V14.7764C150.17 15.6494 150.281 16.3438 150.504 16.8594V17H148.799ZM146.101 15.7607C146.61 15.7607 147.094 15.6289 147.551 15.3652C148.008 15.1016 148.339 14.7588 148.544 14.3369V12.3857H147.27C145.277 12.3857 144.281 12.9688 144.281 14.1348C144.281 14.6445 144.451 15.043 144.791 15.3301C145.131 15.6172 145.567 15.7607 146.101 15.7607ZM149.924 3.78125C149.924 4.41406 149.742 4.92676 149.379 5.31934C149.021 5.71191 148.573 5.9082 148.034 5.9082C147.794 5.9082 147.586 5.87891 147.41 5.82031C147.234 5.76172 147.003 5.6416 146.716 5.45996C146.435 5.27832 146.229 5.16992 146.101 5.13477C145.978 5.09375 145.834 5.07324 145.67 5.07324C145.43 5.07324 145.225 5.16699 145.055 5.35449C144.885 5.53613 144.8 5.77051 144.8 6.05762L143.71 5.99609C143.71 5.36914 143.886 4.85059 144.237 4.44043C144.595 4.03027 145.046 3.8252 145.591 3.8252C145.796 3.8252 145.98 3.85449 146.145 3.91309C146.309 3.97168 146.531 4.08594 146.812 4.25586C147.094 4.42578 147.308 4.53711 147.454 4.58984C147.606 4.64258 147.773 4.66895 147.955 4.66895C148.207 4.66895 148.415 4.56934 148.579 4.37012C148.749 4.1709 148.834 3.93945 148.834 3.67578L149.924 3.78125ZM152.288 12.1572C152.288 11.2256 152.47 10.3877 152.833 9.64355C153.202 8.89941 153.712 8.3252 154.362 7.9209C155.019 7.5166 155.766 7.31445 156.604 7.31445C157.898 7.31445 158.944 7.7627 159.741 8.65918C160.544 9.55566 160.945 10.748 160.945 12.2363V12.3506C160.945 13.2764 160.767 14.1084 160.409 14.8467C160.058 15.5791 159.551 16.1504 158.889 16.5605C158.232 16.9707 157.477 17.1758 156.621 17.1758C155.332 17.1758 154.286 16.7275 153.483 15.8311C152.687 14.9346 152.288 13.748 152.288 12.2715V12.1572ZM153.923 12.3506C153.923 13.4053 154.166 14.252 154.652 14.8906C155.145 15.5293 155.801 15.8486 156.621 15.8486C157.447 15.8486 158.104 15.5264 158.59 14.8818C159.076 14.2314 159.319 13.3232 159.319 12.1572C159.319 11.1143 159.07 10.2705 158.572 9.62598C158.08 8.97559 157.424 8.65039 156.604 8.65039C155.801 8.65039 155.153 8.96973 154.661 9.6084C154.169 10.2471 153.923 11.1611 153.923 12.3506ZM171.396 17.1758C170.106 17.1758 169.058 16.7539 168.249 15.9102C167.44 15.0605 167.036 13.9268 167.036 12.5088V12.21C167.036 11.2666 167.215 10.4258 167.572 9.6875C167.936 8.94336 168.439 8.36328 169.084 7.94727C169.734 7.52539 170.438 7.31445 171.193 7.31445C172.43 7.31445 173.391 7.72168 174.076 8.53613C174.762 9.35059 175.104 10.5166 175.104 12.0342V12.7109H168.662C168.686 13.6484 168.958 14.4072 169.479 14.9873C170.007 15.5615 170.675 15.8486 171.483 15.8486C172.058 15.8486 172.544 15.7314 172.942 15.4971C173.341 15.2627 173.689 14.9521 173.988 14.5654L174.981 15.3389C174.185 16.5635 172.989 17.1758 171.396 17.1758ZM171.193 8.65039C170.537 8.65039 169.986 8.89062 169.541 9.37109C169.096 9.8457 168.82 10.5137 168.715 11.375H173.479V11.252C173.432 10.4258 173.209 9.78711 172.811 9.33594C172.412 8.87891 171.873 8.65039 171.193 8.65039ZM178.532 7.49023L178.585 8.68555C179.312 7.77148 180.261 7.31445 181.433 7.31445C183.442 7.31445 184.456 8.44824 184.474 10.7158V17H182.848V10.707C182.842 10.0215 182.684 9.51465 182.373 9.18652C182.068 8.8584 181.591 8.69434 180.94 8.69434C180.413 8.69434 179.95 8.83496 179.552 9.11621C179.153 9.39746 178.843 9.7666 178.62 10.2236V17H176.994V7.49023H178.532ZM190.74 15.8486C191.32 15.8486 191.827 15.6729 192.261 15.3213C192.694 14.9697 192.935 14.5303 192.981 14.0029H194.52C194.49 14.5479 194.303 15.0664 193.957 15.5586C193.611 16.0508 193.148 16.4434 192.568 16.7363C191.994 17.0293 191.385 17.1758 190.74 17.1758C189.445 17.1758 188.414 16.7451 187.646 15.8838C186.885 15.0166 186.504 13.833 186.504 12.333V12.0605C186.504 11.1348 186.674 10.3115 187.014 9.59082C187.354 8.87012 187.84 8.31055 188.473 7.91211C189.111 7.51367 189.864 7.31445 190.731 7.31445C191.798 7.31445 192.683 7.63379 193.386 8.27246C194.095 8.91113 194.473 9.74023 194.52 10.7598H192.981C192.935 10.1445 192.7 9.64062 192.278 9.24805C191.862 8.84961 191.347 8.65039 190.731 8.65039C189.905 8.65039 189.264 8.94922 188.807 9.54688C188.355 10.1387 188.13 10.9971 188.13 12.1221V12.4297C188.13 13.5254 188.355 14.3691 188.807 14.9609C189.258 15.5527 189.902 15.8486 190.74 15.8486ZM195.917 12.1572C195.917 11.2256 196.099 10.3877 196.462 9.64355C196.831 8.89941 197.341 8.3252 197.991 7.9209C198.647 7.5166 199.395 7.31445 200.232 7.31445C201.527 7.31445 202.573 7.7627 203.37 8.65918C204.173 9.55566 204.574 10.748 204.574 12.2363V12.3506C204.574 13.2764 204.396 14.1084 204.038 14.8467C203.687 15.5791 203.18 16.1504 202.518 16.5605C201.861 16.9707 201.105 17.1758 200.25 17.1758C198.961 17.1758 197.915 16.7275 197.112 15.8311C196.315 14.9346 195.917 13.748 195.917 12.2715V12.1572ZM197.552 12.3506C197.552 13.4053 197.795 14.252 198.281 14.8906C198.773 15.5293 199.43 15.8486 200.25 15.8486C201.076 15.8486 201.732 15.5264 202.219 14.8818C202.705 14.2314 202.948 13.3232 202.948 12.1572C202.948 11.1143 202.699 10.2705 202.201 9.62598C201.709 8.97559 201.053 8.65039 200.232 8.65039C199.43 8.65039 198.782 8.96973 198.29 9.6084C197.798 10.2471 197.552 11.1611 197.552 12.3506ZM208.151 7.49023L208.204 8.68555C208.931 7.77148 209.88 7.31445 211.052 7.31445C213.062 7.31445 214.075 8.44824 214.093 10.7158V17H212.467V10.707C212.461 10.0215 212.303 9.51465 211.992 9.18652C211.688 8.8584 211.21 8.69434 210.56 8.69434C210.032 8.69434 209.569 8.83496 209.171 9.11621C208.772 9.39746 208.462 9.7666 208.239 10.2236V17H206.613V7.49023H208.151ZM218.751 5.1875V7.49023H220.526V8.74707H218.751V14.6445C218.751 15.0254 218.83 15.3125 218.988 15.5059C219.146 15.6934 219.416 15.7871 219.797 15.7871C219.984 15.7871 220.242 15.752 220.57 15.6816V17C220.143 17.1172 219.727 17.1758 219.322 17.1758C218.596 17.1758 218.048 16.9561 217.679 16.5166C217.31 16.0771 217.125 15.4531 217.125 14.6445V8.74707H215.394V7.49023H217.125V5.1875H218.751ZM227.03 8.94922C226.784 8.9082 226.518 8.8877 226.23 8.8877C225.164 8.8877 224.44 9.3418 224.06 10.25V17H222.434V7.49023H224.016L224.042 8.58887C224.575 7.73926 225.331 7.31445 226.31 7.31445C226.626 7.31445 226.866 7.35547 227.03 7.4375V8.94922ZM234.053 17C233.959 16.8125 233.883 16.4785 233.824 15.998C233.068 16.7832 232.166 17.1758 231.117 17.1758C230.18 17.1758 229.409 16.9121 228.806 16.3848C228.208 15.8516 227.909 15.1777 227.909 14.3633C227.909 13.373 228.284 12.6055 229.034 12.0605C229.79 11.5098 230.851 11.2344 232.216 11.2344H233.798V10.4873C233.798 9.91895 233.628 9.46777 233.288 9.13379C232.948 8.79395 232.447 8.62402 231.785 8.62402C231.205 8.62402 230.719 8.77051 230.326 9.06348C229.934 9.35645 229.737 9.71094 229.737 10.127H228.103C228.103 9.65234 228.27 9.19531 228.604 8.75586C228.943 8.31055 229.4 7.95898 229.975 7.70117C230.555 7.44336 231.19 7.31445 231.882 7.31445C232.978 7.31445 233.836 7.58984 234.457 8.14062C235.078 8.68555 235.4 9.43848 235.424 10.3994V14.7764C235.424 15.6494 235.535 16.3438 235.758 16.8594V17H234.053ZM231.354 15.7607C231.864 15.7607 232.348 15.6289 232.805 15.3652C233.262 15.1016 233.593 14.7588 233.798 14.3369V12.3857H232.523C230.531 12.3857 229.535 12.9688 229.535 14.1348C229.535 14.6445 229.705 15.043 230.045 15.3301C230.385 15.6172 230.821 15.7607 231.354 15.7607ZM237.577 12.166C237.577 10.707 237.923 9.53516 238.614 8.65039C239.306 7.75977 240.211 7.31445 241.33 7.31445C242.443 7.31445 243.325 7.69531 243.976 8.45703V3.5H245.602V17H244.107L244.028 15.9805C243.378 16.7773 242.473 17.1758 241.312 17.1758C240.211 17.1758 239.312 16.7246 238.614 15.8223C237.923 14.9199 237.577 13.7422 237.577 12.2891V12.166ZM239.203 12.3506C239.203 13.4287 239.426 14.2725 239.871 14.8818C240.316 15.4912 240.932 15.7959 241.717 15.7959C242.748 15.7959 243.501 15.333 243.976 14.4072V10.0391C243.489 9.14258 242.742 8.69434 241.734 8.69434C240.938 8.69434 240.316 9.00195 239.871 9.61719C239.426 10.2324 239.203 11.1436 239.203 12.3506ZM254.004 17C253.91 16.8125 253.834 16.4785 253.775 15.998C253.02 16.7832 252.117 17.1758 251.068 17.1758C250.131 17.1758 249.36 16.9121 248.757 16.3848C248.159 15.8516 247.86 15.1777 247.86 14.3633C247.86 13.373 248.235 12.6055 248.985 12.0605C249.741 11.5098 250.802 11.2344 252.167 11.2344H253.749V10.4873C253.749 9.91895 253.579 9.46777 253.239 9.13379C252.899 8.79395 252.398 8.62402 251.736 8.62402C251.156 8.62402 250.67 8.77051 250.277 9.06348C249.885 9.35645 249.688 9.71094 249.688 10.127H248.054C248.054 9.65234 248.221 9.19531 248.555 8.75586C248.895 8.31055 249.352 7.95898 249.926 7.70117C250.506 7.44336 251.142 7.31445 251.833 7.31445C252.929 7.31445 253.787 7.58984 254.408 8.14062C255.029 8.68555 255.352 9.43848 255.375 10.3994V14.7764C255.375 15.6494 255.486 16.3438 255.709 16.8594V17H254.004ZM251.306 15.7607C251.815 15.7607 252.299 15.6289 252.756 15.3652C253.213 15.1016 253.544 14.7588 253.749 14.3369V12.3857H252.475C250.482 12.3857 249.486 12.9688 249.486 14.1348C249.486 14.6445 249.656 15.043 249.996 15.3301C250.336 15.6172 250.772 15.7607 251.306 15.7607ZM259.743 13.3877H258.275L258.161 4.20312H259.866L259.743 13.3877ZM258.1 16.1826C258.1 15.9189 258.179 15.6992 258.337 15.5234C258.501 15.3418 258.741 15.251 259.058 15.251C259.374 15.251 259.614 15.3418 259.778 15.5234C259.942 15.6992 260.024 15.9189 260.024 16.1826C260.024 16.4463 259.942 16.666 259.778 16.8418C259.614 17.0117 259.374 17.0967 259.058 17.0967C258.741 17.0967 258.501 17.0117 258.337 16.8418C258.179 16.666 258.1 16.4463 258.1 16.1826Z" fill="white"/>
</g>
</svg>
